<svg id="a36ef47f-dbbb-4b98-a7a6-d4eeec0191d6" data-name="Layer 1" xmlns="http://www.w3.org/2000/svg" xmlns:xlink="http://www.w3.org/1999/xlink" viewBox="0 0 100 56"><defs><style>.a001bdf8-c161-44d9-9c06-6e8a6cb12819{fill:url(#ac3da311-3b89-4c06-a4ef-0153e09f1af8);}.bcf217db-e7c9-436b-b791-73121700fb21{fill:#121212;}.b08a22f3-cad2-40a0-a564-117b90746aff{stroke:#000;stroke-miterlimit:10;stroke-width:2px;}.ba0b7da3-1dff-4fb6-b170-0695864a03c8{fill:#fff;}</style><linearGradient id="ac3da311-3b89-4c06-a4ef-0153e09f1af8" x1="16.27" y1="42.14" x2="101.9" y2="0.03" gradientUnits="userSpaceOnUse"><stop offset="0" stop-color="#686868"/><stop offset="1"/></linearGradient></defs><path class="a001bdf8-c161-44d9-9c06-6e8a6cb12819" d="M1,49.5a.47.47,0,0,1-.33-.14A.5.5,0,0,1,.5,49V2c0-.19.4-.5.74-.5H99A.48.48,0,0,1,99.5,2V49a.48.48,0,0,1-.47.49Z"/><path d="M99,2l0,47H1V2.11A.52.52,0,0,1,1.24,2H99m0-1H1.24C.7,1,0,1.46,0,2V49a1,1,0,0,0,1,1H99a1,1,0,0,0,1-1V2a1,1,0,0,0-1-1Z"/><rect class="bcf217db-e7c9-436b-b791-73121700fb21" x="2" y="3" width="96" height="45"/><path class="b08a22f3-cad2-40a0-a564-117b90746aff" d="M47,50v2.44A79,79,0,0,0,31.42,55h7a51.12,51.12,0,0,1,11.76-1.14A53.93,53.93,0,0,1,62.08,55h6.55A79.32,79.32,0,0,0,53,52.44V50"/><path class="ba0b7da3-1dff-4fb6-b170-0695864a03c8" d="M8.1,35.12C8,34.4,7.92,33.67,7.84,33q-.57-3.74-1.06-7.49c-.25-1.64-.49-3.28-.73-4.93L8.94,20l2.66-.47c.18.6.33,1.05.45,1.36s.36.9.74,1.78.7,1.65,1,2.3.64,1.76,1.18,3.35c.09-1.16.19-2.15.29-3s.25-1.8.45-2.87.34-1.78.39-2.11.11-.84.19-1.52l2.93-.37,2.72-.36c.1,2.43.24,4.51.38,6.25.28,3.41.51,5.74.66,7,0,.26.09.74.19,1.43L21.45,33c-.47.06-1,.14-1.7.25,0-.65-.2-2.19-.45-4.61s-.41-4-.5-4.65c0-.29-.1-.7-.18-1.22q-.36,2.27-.66,4.53c-.31,2.1-.58,4.21-.81,6.31l-1.61.21-1.71.29c-.73-1.88-1.48-3.77-2.23-5.65-.42-1-.85-2-1.27-3l-.18-.43-.33-.91.33,3q.42,3,.89,6.06c.09.46.17.91.26,1.36l-1.59.25Z"/><path class="ba0b7da3-1dff-4fb6-b170-0695864a03c8" d="M25,37.6c-.38-1.69-.62-2.74-.73-3.15a4.63,4.63,0,0,0,1,.33,3,3,0,0,0,.76,0,1.67,1.67,0,0,0,.6-.17,1.55,1.55,0,0,0,.44-.31,2.5,2.5,0,0,0,.32-.52,3.6,3.6,0,0,0,.25-.58,4.37,4.37,0,0,0,.15-.69c-.74-2-1.49-4-2.26-5.95-.65-1.64-1.32-3.27-2-4.91,1-.09,1.65-.15,2-.2l1.86-.2c.16.54.45,1.47.87,2.8s.71,2.37.91,3.13c.1.42.22,1,.33,1.6,0-.3.1-.59.14-.88s.11-.51.17-.81.15-.66.25-1.08l.51-2c.3-1,.6-2.07.91-3.1l1.84-.12,1.95-.15c-.61,1.61-1.19,3.23-1.75,4.84-1,3-1.93,6-2.77,9a7.57,7.57,0,0,1-.5,1.22,4.93,4.93,0,0,1-.5.73,3,3,0,0,1-.57.5,3.49,3.49,0,0,1-.92.48,4.58,4.58,0,0,1-1.15.27,6.75,6.75,0,0,1-.71,0l-.73,0Z"/><path class="ba0b7da3-1dff-4fb6-b170-0695864a03c8" d="M38.93,31.51q.45-5.28.66-11.61c-1.39.1-2.78.22-4.17.34,0-.4,0-.8,0-1.2,0-.65,0-1.35,0-2.12q2.84-.15,6.62-.29l2.47-.08,2.4,0,1.3,0c0,.35-.09.71-.14,1.06-.07.57-.12,1-.16,1.41s-.06.65-.08.84c-1.39-.06-2.53-.08-3.44-.06l-.69,0c-.15,1.28-.28,2.46-.37,3.54-.13,1.55-.24,3.06-.33,4.52s-.13,2.64-.16,3.54L41,31.4C40.75,31.41,40.06,31.44,38.93,31.51Z"/><path class="ba0b7da3-1dff-4fb6-b170-0695864a03c8" d="M50.3,31.23c-.22-1.18-.45-2.36-.68-3.54-.54-2.5-1.11-5-1.7-7.49.74,0,1.43,0,2.07,0h1.87c.06.5.2,1.37.39,2.61s.39,2.73.59,4.45l.33-.9c0-.1.25-.56.59-1.37q1-2.37,2.09-4.73l2,.07,2,.05q-.91,1.57-1.8,3.15-1.68,3.13-3.22,6.3l-.66,1.44c-.71,0-1.34,0-1.88-.05Z"/><path class="ba0b7da3-1dff-4fb6-b170-0695864a03c8" d="M58.73,31.39c.4-1.69.72-3.06,1-4.13.43-1.94.84-3.88,1.21-5.8s.68-3.49.89-4.71l2.4.14,2,.11-1,3.86q-.74,3-1.42,6c-.11.5-.21,1-.31,1.49l2.06.16c1.62.11,2.85.18,3.69.2-.3,1.06-.61,2.13-.91,3.2-1.57-.14-3.08-.25-4.51-.34C61.89,31.5,60.19,31.43,58.73,31.39Z"/><path class="ba0b7da3-1dff-4fb6-b170-0695864a03c8" d="M69.49,32c.28-.86.51-1.57.68-2.12s.38-1.27.62-2.14.51-1.83.79-2.88.61-2.27,1-3.67l2,.22,2,.19c-.47,1.32-.86,2.48-1.18,3.48s-.63,2.07-.94,3.2c-.55,2-.91,3.36-1.1,4.08-.71-.09-1.32-.15-1.84-.2ZM73,19.88c.25-.83.43-1.5.55-2,0-.15.08-.34.14-.58l2,.23,2,.19c-.08.22-.14.4-.19.55l-.42,1.3c-.07.19-.14.43-.21.69-.65-.08-1.27-.16-1.87-.22Z"/><path class="ba0b7da3-1dff-4fb6-b170-0695864a03c8" d="M75.29,32.39c.06-.31.12-.64.19-1s.16-.82.26-1.42c.05-.26.09-.51.14-.77a12.19,12.19,0,0,0,1.37.77,4,4,0,0,0,1.12.34,2.7,2.7,0,0,0,.76,0,1,1,0,0,0,.49-.22.85.85,0,0,0,.24-.35.56.56,0,0,0,0-.34,1.62,1.62,0,0,0-.3-.51c-.38-.48-.71-.92-1-1.31a5,5,0,0,1-.62-1,2.56,2.56,0,0,1-.2-.91,3,3,0,0,1,.11-1,3.73,3.73,0,0,1,.93-1.57,3.25,3.25,0,0,1,1.68-.93,6.45,6.45,0,0,1,2.3-.06,18.29,18.29,0,0,1,3.33.88l-.84,2.93a4.7,4.7,0,0,0-2.06-.82,2.51,2.51,0,0,0-1.15,0,.7.7,0,0,0-.5.47.89.89,0,0,0,0,.22.55.55,0,0,0,.07.24,1.34,1.34,0,0,0,.17.27l.54.66c.28.34.5.62.65.84a3.84,3.84,0,0,1,.52,1,3,3,0,0,1,.14.89,3.35,3.35,0,0,1-.17,1A3.55,3.55,0,0,1,82.66,32a3.51,3.51,0,0,1-1.28.91,5,5,0,0,1-1.54.4,7.32,7.32,0,0,1-1.55,0A9.9,9.9,0,0,1,77,33,14,14,0,0,1,75.29,32.39Z"/><path class="ba0b7da3-1dff-4fb6-b170-0695864a03c8" d="M92.1,31.84q-.51.82-1,1.62l-.69,1.22a14.12,14.12,0,0,1-1.5,0,6.14,6.14,0,0,1-1-.1,4.77,4.77,0,0,1-1.3-.37,1.6,1.6,0,0,1-.79-.7,1.82,1.82,0,0,1-.22-1,4.37,4.37,0,0,1,.25-1.12c0-.07.07-.19.14-.37s.22-.56.48-1.16c.49-1.19,1-2.37,1.49-3.55l-1.48-.23c.2-.47.45-1.1.75-1.87.13-.32.25-.64.37-1l1.61.26c.16-.31.46-1,.92-2.05L92,21.43l2.16-.12c-.4.89-.82,1.84-1.25,2.87l2.21.41c-.64,1.4-1.05,2.33-1.24,2.78L91.7,27l-1.12,2.55c-.16.38-.26.62-.3.73a3.08,3.08,0,0,0-.22.84.61.61,0,0,0,.16.53.79.79,0,0,0,.48.24,2.29,2.29,0,0,0,.47,0A6.57,6.57,0,0,0,92.1,31.84Z"/></svg>