<svg xmlns="http://www.w3.org/2000/svg" width="35.003" height="34.998" viewBox="0 0 35.003 34.998">
  <defs>
    <style>
      .cls-1 {
      }
    </style>
  </defs>
  <path id="Logo" class="cls-1" d="M790.253,3699.4l-.955-6.066a2.628,2.628,0,0,1,.657-2.01.439.439,0,0,0-.014-.641l-6.622-6.612a.435.435,0,0,0-.629,0,2.638,2.638,0,0,1-2.014.655l-6.075-.954c-.645-.1-.8-.561-.333-1.022l8.4-8.386a2.374,2.374,0,0,1,2-.565l2.29.545a.99.99,0,0,0,.944-.281c7.347-6.748,16.838-11.194,20.027-8.01,3.207,3.2-1.12,12.978-7.928,20.316a.715.715,0,0,0-.277.791l.524,2.193a2.36,2.36,0,0,1-.566,1.992l-8.4,8.387a.776.776,0,0,1-.521.267C790.51,3700,790.316,3699.791,790.253,3699.4Zm7.586-28.218a3.648,3.648,0,1,0,2.576-1.065A3.633,3.633,0,0,0,797.839,3671.18Zm-15.6,15.873c.12-.119.321-.388.857.148l3.843,3.836c.552.551.277.747.158.866-3.085,3.078-3.962,2.293-9.232,4.934a.4.4,0,0,1-.174.05C776.667,3696.886,779.294,3689.99,782.236,3687.053Z" transform="translate(-774 -3665.001)"/>
</svg>
